<?xml version="1.0" encoding="utf-8"?>
<svg width="932" height="186.5" viewBox="0 0 932 186.5" fill="none" xmlns="http://www.w3.org/2000/svg">
  <defs>
    <linearGradient id="gradient_1" gradientUnits="userSpaceOnUse" x1="80.25" y1="0" x2="80.25" y2="137.5">
      <stop offset="0" stop-color="#13CADD" />
      <stop offset="1" stop-color="#3239AB" />
    </linearGradient>
  </defs>
  <g>
    <g>
      <path d="M78.2014 2.33939L3.7566 48.1865Q3.54241 48.3184 3.33704 48.4637Q3.13168 48.6089 2.93598 48.767Q2.74027 48.925 2.55502 49.0952Q2.36977 49.2654 2.19573 49.447Q2.02168 49.6286 1.85955 49.821Q1.69741 50.0133 1.54784 50.2155Q1.39827 50.4178 1.26188 50.6292Q1.12548 50.8405 1.00281 51.0601Q0.880139 51.2798 0.771692 51.5067Q0.663245 51.7337 0.56946 51.9671Q0.475676 52.2005 0.396934 52.4394Q0.318192 52.6784 0.254813 52.9218Q0.191433 53.1652 0.143672 53.4122Q0.0959108 53.6592 0.0639621 53.9087Q0.0320135 54.1582 0.0160068 54.4093Q0 54.6603 0 54.9118L0 123.498Q0 123.759 0.0172359 124.019Q0.0344718 124.28 0.0688684 124.538Q0.103265 124.797 0.154672 125.053Q0.206079 125.309 0.274273 125.561Q0.342466 125.813 0.427148 126.06Q0.51183 126.307 0.612631 126.548Q0.713432 126.788 0.829912 127.022Q0.946392 127.256 1.07804 127.481Q1.20969 127.706 1.35594 127.923Q1.50219 128.139 1.66239 128.345Q1.8226 128.551 1.99606 128.746Q2.16952 128.941 2.35549 129.124Q2.54145 129.308 2.73911 129.478Q2.93676 129.649 3.14525 129.806Q3.35373 129.963 3.57213 130.106Q3.79053 130.249 4.01789 130.377Q4.24526 130.505 4.48059 130.618Q4.71593 130.731 4.95821 130.828Q5.20049 130.926 5.44866 131.007Q5.69683 131.088 5.9498 131.152Q6.20277 131.216 6.45944 131.264Q6.71611 131.311 6.97537 131.342Q7.23462 131.372 7.49532 131.386Q7.75602 131.399 8.01704 131.395Q8.27805 131.391 8.53823 131.37Q8.79842 131.349 9.05664 131.311Q9.31486 131.272 9.56999 131.217Q9.82512 131.162 10.076 131.09Q10.327 131.018 10.5726 130.93Q10.8182 130.841 11.0575 130.737Q11.2967 130.632 11.5286 130.512Q11.7604 130.392 11.9838 130.257L148.414 47.8043Q148.638 47.6688 148.853 47.5188Q149.068 47.3687 149.272 47.2048Q149.476 47.0409 149.669 46.8638Q149.862 46.6867 150.043 46.4972Q150.224 46.3076 150.392 46.1066Q150.56 45.9055 150.714 45.6937Q150.868 45.482 151.008 45.2605Q151.148 45.039 151.272 44.8087Q151.397 44.5784 151.507 44.3404Q151.616 44.1024 151.709 43.8576Q151.802 43.6128 151.879 43.3624Q151.956 43.112 152.016 42.8571Q152.076 42.6021 152.119 42.3438Q152.163 42.0854 152.188 41.8247Q152.214 41.5641 152.223 41.3023Q152.231 41.0405 152.223 40.7787Q152.214 40.5169 152.188 40.2563Q152.161 39.9957 152.118 39.7373Q152.075 39.479 152.014 39.2241Q151.954 38.9692 151.877 38.7189Q151.8 38.4686 151.706 38.2239Q151.613 37.9792 151.503 37.7413Q151.394 37.5034 151.269 37.2732Q151.144 37.0431 151.003 36.8217Q150.863 36.6004 150.709 36.3888Q150.555 36.1772 150.387 35.9763Q150.218 35.7754 150.037 35.5861Q149.856 35.3967 149.663 35.2198Q149.47 35.0429 149.266 34.8792Q149.061 34.7154 148.846 34.5656Q148.631 34.4158 148.407 34.2805Q148.183 34.1453 147.95 34.0252L85.9646 2.04545Q85.739 1.92904 85.5063 1.82736Q85.2737 1.72568 85.035 1.63915Q84.7963 1.55262 84.5525 1.4816Q84.3088 1.41058 84.061 1.35537Q83.8131 1.30015 83.5623 1.26096Q83.3114 1.22177 83.0586 1.19878Q82.8057 1.17578 82.5519 1.16908Q82.2981 1.16237 82.0444 1.17197Q81.7906 1.18158 81.5381 1.20746Q81.2855 1.23334 81.0351 1.27539Q80.7847 1.31744 80.5375 1.37549Q80.2904 1.43353 80.0474 1.50733Q79.8045 1.58113 79.5668 1.67038Q79.3291 1.75963 79.0976 1.86396Q78.8661 1.96829 78.6419 2.08727Q78.4176 2.20625 78.2014 2.33939L78.2014 2.33939Z" fill="url(#gradient_1)" fill-rule="evenodd" />
      <path d="M13.0337 71.5168L77.9519 103.976Q78.1524 104.076 78.3582 104.165Q78.5641 104.254 78.7746 104.33Q78.9851 104.407 79.1997 104.472Q79.4143 104.537 79.6322 104.59Q79.8501 104.642 80.0706 104.682Q80.2912 104.722 80.5136 104.75Q80.7361 104.777 80.9597 104.792Q81.1834 104.807 81.4075 104.809Q81.6317 104.812 81.8556 104.801Q82.0795 104.79 82.3024 104.767Q82.5253 104.744 82.7466 104.708Q82.9679 104.672 83.1868 104.624Q83.4056 104.576 83.6214 104.515Q83.8372 104.454 84.0492 104.382Q84.2612 104.309 84.4688 104.224Q84.6763 104.139 84.8787 104.043Q85.0811 103.947 85.2777 103.839Q85.4743 103.731 85.6645 103.613Q85.8546 103.494 86.0378 103.365Q86.2209 103.236 86.3965 103.096Q86.572 102.957 86.7393 102.808Q86.9067 102.659 87.0653 102.5Q87.2239 102.342 87.3733 102.175Q87.5226 102.008 87.6623 101.832Q87.8019 101.657 87.9314 101.474Q88.0609 101.291 88.1798 101.101Q88.2987 100.911 88.4066 100.715Q88.5146 100.518 88.6112 100.316Q88.7078 100.114 88.7928 99.9062Q88.8778 99.6988 88.9509 99.4869Q89.024 99.275 89.0849 99.0593Q89.1459 98.8436 89.1945 98.6248L97.221 62.5054Q97.3125 62.0938 97.4473 61.6942Q97.5821 61.2946 97.7586 60.9117Q97.9352 60.5288 98.1515 60.1668Q98.3679 59.8048 98.6215 59.4679Q98.8752 59.1311 99.1632 58.8231Q99.4513 58.5152 99.7705 58.2396Q100.09 57.9641 100.436 57.7241Q100.783 57.4841 101.154 57.2825L142.481 34.7737Q142.704 34.6522 142.919 34.5166Q143.134 34.381 143.34 34.2319Q143.545 34.0828 143.741 33.9208Q143.936 33.7588 144.121 33.5845Q144.306 33.4103 144.479 33.2245Q144.653 33.0388 144.814 32.8423Q144.975 32.6458 145.123 32.4393Q145.271 32.2329 145.405 32.0173Q145.539 31.8018 145.66 31.5781Q145.78 31.3544 145.886 31.1234Q145.991 30.8924 146.082 30.6551Q146.173 30.4178 146.248 30.1751Q146.323 29.9325 146.382 29.6855Q146.442 29.4386 146.485 29.1883Q146.529 28.938 146.556 28.6855Q146.583 28.4329 146.594 28.1792Q146.605 27.9254 146.6 27.6714Q146.595 27.4175 146.573 27.1644Q146.551 26.9113 146.514 26.6601Q146.476 26.4089 146.422 26.1607Q146.368 25.9125 146.298 25.6682Q146.228 25.424 146.143 25.1847Q146.058 24.9454 145.957 24.7121Q145.857 24.4789 145.741 24.2525Q145.626 24.0262 145.497 23.8077Q145.367 23.5892 145.224 23.3795Q145.08 23.1698 144.924 22.9698Q144.767 22.7697 144.598 22.5802Q144.429 22.3906 144.248 22.2123Q144.067 22.0339 143.875 21.8676Q143.683 21.7013 143.481 21.5476Q143.279 21.394 143.067 21.2536L115.105 2.72078Q114.876 2.56867 114.636 2.4329Q114.396 2.29714 114.148 2.17838Q113.9 2.05963 113.644 1.95846Q113.387 1.8573 113.125 1.77421Q112.862 1.69112 112.595 1.62651Q112.327 1.5619 112.056 1.51609Q111.784 1.47028 111.51 1.44348Q111.236 1.41669 110.961 1.40904Q110.686 1.40139 110.411 1.41293Q110.135 1.42446 109.862 1.45513Q109.588 1.48579 109.317 1.53544Q109.047 1.58508 108.78 1.65347Q108.513 1.72185 108.252 1.80864Q107.99 1.89543 107.736 2.0002Q107.481 2.10498 107.235 2.22723Q106.988 2.34948 106.75 2.48862L12.5747 57.6364Q12.3458 57.7705 12.1265 57.9195Q11.9071 58.0686 11.6983 58.232Q11.4894 58.3955 11.292 58.5726Q11.0945 58.7497 10.9094 58.9396Q10.7243 59.1295 10.5524 59.3315Q10.3804 59.5334 10.2224 59.7464Q10.0644 59.9594 9.92104 60.1825Q9.77767 60.4056 9.6496 60.6379Q9.52152 60.8701 9.4093 61.1104Q9.29709 61.3507 9.20125 61.598Q9.10541 61.8453 9.02638 62.0985Q8.94734 62.3516 8.88547 62.6095Q8.82359 62.8674 8.77916 63.1289Q8.73472 63.3904 8.70792 63.6542Q8.68113 63.9181 8.67209 64.1831Q8.66306 64.4482 8.67182 64.7133Q8.68058 64.9783 8.70711 65.2422Q8.73364 65.5061 8.7778 65.7676Q8.82197 66.0291 8.88358 66.2871Q8.94519 66.5451 9.02397 66.7983Q9.10274 67.0515 9.19833 67.2989Q9.29392 67.5463 9.40588 67.7868Q9.51785 68.0272 9.64569 68.2595Q9.77353 68.4919 9.91667 68.7152Q10.0598 68.9384 10.2176 69.1516Q10.3754 69.3648 10.5471 69.5669Q10.7189 69.769 10.9038 69.9591Q11.0887 70.1492 11.2859 70.3265Q11.4832 70.5038 11.6919 70.6675Q11.9006 70.8311 12.1198 70.9804Q12.339 71.1297 12.5677 71.264Q12.7964 71.3982 13.0337 71.5168L13.0337 71.5168Z" fill="url(#gradient_1)" fill-rule="evenodd" transform="translate(6 78)" />
    </g>
    <path d="M33.8844 109.976Q29.0022 99.6731 24.2527 88.5922Q19.5032 77.5112 15.2294 66.6663Q10.9556 55.8214 7.37131 45.9038Q3.78706 35.9863 1.18 28.202L21.476 28.202Q23.7715 35.3041 26.5823 43.4922Q29.3931 51.6803 32.309 59.8131Q35.2248 67.9459 37.8955 75.3955Q40.5662 82.8452 43.011 88.264Q45.3157 82.8802 48.049 75.4315Q50.7824 67.9827 53.6974 59.85Q56.6123 51.7172 59.4213 43.5291Q62.2302 35.341 64.5368 28.202L84.134 28.202Q81.3868 36.025 77.8109 45.9223Q74.2349 55.8195 69.9878 66.6755Q65.7408 77.5315 61.0226 88.6245Q56.3044 99.7174 51.4406 109.976L33.8844 109.976ZM84.016 79.414Q84.016 71.154 86.553 64.959Q89.09 58.764 93.22 54.634Q97.35 50.504 102.719 48.38Q108.088 46.256 113.752 46.256Q126.968 46.256 134.638 54.339Q142.308 62.422 142.308 78.116Q142.308 79.65 142.19 81.479Q142.072 83.308 141.954 84.724L102.07 84.724Q102.66 90.152 107.144 93.338Q111.628 96.524 119.18 96.524Q124.018 96.524 128.679 95.639Q133.34 94.754 136.29 93.456L138.65 107.734Q137.234 108.442 134.874 109.15Q132.514 109.858 129.623 110.389Q126.732 110.92 123.428 111.274Q120.124 111.628 116.82 111.628Q108.442 111.628 102.247 109.15Q96.052 106.672 91.981 102.365Q87.91 98.058 85.963 92.158Q84.016 86.258 84.016 79.414ZM125.316 72.688Q125.198 70.446 124.549 68.322Q123.9 66.198 122.543 64.546Q121.186 62.894 119.121 61.832Q117.056 60.77 113.988 60.77Q111.038 60.77 108.914 61.773Q106.79 62.776 105.374 64.428Q103.958 66.08 103.191 68.263Q102.424 70.446 102.07 72.688L125.316 72.688ZM155.878 50.032Q160.362 48.734 167.442 47.613Q174.522 46.492 182.31 46.492Q190.216 46.492 195.467 48.557Q200.718 50.622 203.786 54.398Q206.854 58.174 208.152 63.366Q209.45 68.558 209.45 74.93L209.45 109.976L191.868 109.976L191.868 77.054Q191.868 68.558 189.626 65.018Q187.384 61.478 181.248 61.478Q179.36 61.478 177.236 61.655Q175.112 61.832 173.46 62.068L173.46 109.976L155.878 109.976L155.878 50.032ZM224.79 32.45L242.372 29.618L242.372 47.908L263.494 47.908L263.494 62.54L242.372 62.54L242.372 84.37Q242.372 89.916 244.319 93.22Q246.266 96.524 252.166 96.524Q254.998 96.524 258.007 95.993Q261.016 95.462 263.494 94.518L265.972 108.206Q262.786 109.504 258.892 110.448Q254.998 111.392 249.334 111.392Q242.136 111.392 237.416 109.445Q232.696 107.498 229.864 104.017Q227.032 100.536 225.911 95.58Q224.79 90.624 224.79 84.606L224.79 32.45ZM330.754 107.852Q326.27 109.15 319.19 110.271Q312.11 111.392 304.322 111.392Q296.416 111.392 291.165 109.268Q285.914 107.144 282.846 103.309Q279.778 99.474 278.48 94.164Q277.182 88.854 277.182 82.482L277.182 47.908L294.764 47.908L294.764 80.358Q294.764 88.854 297.006 92.63Q299.248 96.406 305.384 96.406Q307.272 96.406 309.396 96.229Q311.52 96.052 313.172 95.816L313.172 47.908L330.754 47.908L330.754 107.852ZM384.68 63.484Q382.32 62.894 379.134 62.245Q375.948 61.596 372.29 61.596Q370.638 61.596 368.337 61.891Q366.036 62.186 364.856 62.54L364.856 109.976L347.274 109.976L347.274 51.212Q351.994 49.56 358.425 48.085Q364.856 46.61 372.762 46.61Q374.178 46.61 376.184 46.787Q378.19 46.964 380.196 47.259Q382.202 47.554 384.208 47.967Q386.214 48.38 387.63 48.97L384.68 63.484ZM392.94 79.414Q392.94 71.154 395.477 64.959Q398.014 58.764 402.144 54.634Q406.274 50.504 411.643 48.38Q417.012 46.256 422.676 46.256Q435.892 46.256 443.562 54.339Q451.232 62.422 451.232 78.116Q451.232 79.65 451.114 81.479Q450.996 83.308 450.878 84.724L410.994 84.724Q411.584 90.152 416.068 93.338Q420.552 96.524 428.104 96.524Q432.942 96.524 437.603 95.639Q442.264 94.754 445.214 93.456L447.574 107.734Q446.158 108.442 443.798 109.15Q441.438 109.858 438.547 110.389Q435.656 110.92 432.352 111.274Q429.048 111.628 425.744 111.628Q417.366 111.628 411.171 109.15Q404.976 106.672 400.905 102.365Q396.834 98.058 394.887 92.158Q392.94 86.258 392.94 79.414ZM434.24 72.688Q434.122 70.446 433.473 68.322Q432.824 66.198 431.467 64.546Q430.11 62.894 428.045 61.832Q425.98 60.77 422.912 60.77Q419.962 60.77 417.838 61.773Q415.714 62.776 414.298 64.428Q412.882 66.08 412.115 68.263Q411.348 70.446 410.994 72.688L434.24 72.688ZM465.982 109.976L465.982 28.202L520.734 28.202L520.734 43.66L484.39 43.66L484.39 60.77L516.722 60.77L516.722 76.228L484.39 76.228L484.39 109.976L465.982 109.976ZM557.314 111.156Q549.644 111.038 544.865 109.504Q540.086 107.97 537.313 105.197Q534.54 102.424 533.537 98.471Q532.534 94.518 532.534 89.562L532.534 21.24L550.116 18.408L550.116 86.022Q550.116 88.382 550.47 90.27Q550.824 92.158 551.827 93.456Q552.83 94.754 554.718 95.58Q556.606 96.406 559.792 96.642L557.314 111.156ZM627.878 78.824Q627.878 86.14 625.754 92.217Q623.63 98.294 619.618 102.601Q615.606 106.908 610.001 109.268Q604.396 111.628 597.434 111.628Q590.59 111.628 584.985 109.268Q579.38 106.908 575.368 102.601Q571.356 98.294 569.114 92.217Q566.872 86.14 566.872 78.824Q566.872 71.508 569.173 65.49Q571.474 59.472 575.545 55.224Q579.616 50.976 585.221 48.616Q590.826 46.256 597.434 46.256Q604.16 46.256 609.765 48.616Q615.37 50.976 619.382 55.224Q623.394 59.472 625.636 65.49Q627.878 71.508 627.878 78.824ZM609.942 78.824Q609.942 70.682 606.697 66.021Q603.452 61.36 597.434 61.36Q591.416 61.36 588.112 66.021Q584.808 70.682 584.808 78.824Q584.808 86.966 588.112 91.745Q591.416 96.524 597.434 96.524Q603.452 96.524 606.697 91.745Q609.942 86.966 609.942 78.824ZM677.851 74.34Q675.491 83.308 672.836 92.158Q670.181 101.008 667.231 109.976L653.543 109.976Q651.414 105.02 648.928 98.176Q646.443 91.332 643.78 83.249Q641.118 75.166 638.337 66.139Q635.555 57.112 632.952 47.908L651.478 47.908Q652.428 52.156 653.555 57.171Q654.683 62.186 655.93 67.496Q657.177 72.806 658.542 78.175Q659.906 83.544 661.331 88.5Q662.865 83.308 664.34 77.88Q665.815 72.452 667.172 67.201Q668.529 61.95 669.768 57.053Q671.007 52.156 671.951 47.908L684.695 47.908Q685.639 52.156 686.819 57.053Q687.999 61.95 689.297 67.201Q690.595 72.452 692.011 77.88Q693.427 83.308 694.961 88.5Q696.386 83.544 697.811 78.175Q699.235 72.806 700.481 67.496Q701.728 62.186 702.855 57.171Q703.983 52.156 704.932 47.908L723.222 47.908Q720.619 57.112 717.837 66.139Q715.056 75.166 712.394 83.249Q709.731 91.332 707.187 98.176Q704.643 105.02 702.513 109.976L688.825 109.976Q685.875 101.008 683.043 92.158Q680.211 83.308 677.851 74.34Z" fill="#FFFFFF" transform="translate(207 25.25)" />
  </g>
</svg>